# xmcd CD database file
#
# Track frame offsets:
#	150
#	15103
#	25641
#	37303
#	50980
#	64705
#	77274
#	89155
#	102922
#	117029
#	129653
#	144196
#	159284
#	172005
#	184983
#	197938
#	212598
#	224113
#	235440
#	249213
#
# Disc length: 3495 seconds
#
# Revision: 1
# Processed by: cddbd v1.5.2PL0 Copyright (c) Steve Scherf et al.
# Submitted via: CDex 1.70beta2
#
DISCID=1b0da514
DTITLE=Django Reinhardt - 100 Swinging Greats! CD 4
DYEAR=2007
DGENRE=Blues
TTITLE0=Manoir de Mes Rêves
TTITLE1=Douce Ambiance
TTITLE2=Cavalerie
TTITLE3=Blues Clair
TTITLE4=Improvisation No.3, PT.1
TTITLE5=Improvisation No.3, PT.2
TTITLE6=Django's Tiger
TTITLE7=Coquette
TTITLE8=Embraceable You
TTITLE9=Echoes of France
TTITLE10=Melodie au Crepuscule
TTITLE11=Nuages
TTITLE12=On the Sunny Side of the Street
TTITLE13=Swingtime in Springtime
TTITLE14=I Won't Dance
TTITLE15=Lover Man
TTITLE16=How High the Moon
TTITLE17=R-Ving-Six
TTITLE18=Songe d'Automne
TTITLE19=Just One of Those Things
EXTD=YEAR: 2007
EXTT0=
EXTT1=
EXTT2=
EXTT3=
EXTT4=
EXTT5=
EXTT6=
EXTT7=
EXTT8=
EXTT9=
EXTT10=
EXTT11=
EXTT12=
EXTT13=
EXTT14=
EXTT15=
EXTT16=
EXTT17=
EXTT18=
EXTT19=
PLAYORDER=
